<?xml version="1.0" encoding="utf-8"?>
<!-- Generator: Adobe Illustrator 24.0.0, SVG Export Plug-In . SVG Version: 6.00 Build 0)  -->
<svg version="1.1" id="Layer_1" xmlns="http://www.w3.org/2000/svg" xmlns:xlink="http://www.w3.org/1999/xlink" x="0px" y="0px"
	 viewBox="0 0 40 40" style="enable-background:new 0 0 40 40;" xml:space="preserve">
<style type="text/css">
	.st0{clip-path:url(#SVGID_2_);}
	.st1{fill:#FFFFFF;stroke:#DFDFDF;}
	.st2{fill:#EA4335;}
	.st3{fill:#FBBC05;}
	.st4{fill:#34A853;}
	.st5{fill:#4285F4;}
</style>
<g>
	<g>
		<defs>
			<rect id="SVGID_1_" width="40" height="40"/>
		</defs>
		<clipPath id="SVGID_2_">
			<use xlink:href="#SVGID_1_"  style="overflow:visible;"/>
		</clipPath>
		<g class="st0">
			<circle class="st1" cx="20" cy="20" r="19.5"/>
			<path class="st1" d="M0,40"/>
			<path class="st1" d="M0,40"/>
			<path class="st1" d="M0,40"/>
			<path class="st1" d="M0,40"/>
		</g>
	</g>
	<g>
		<path class="st2" d="M20.3,14.4c1.4,0,2.6,0.5,3.6,1.3l2.5-2.5c-1.7-1.6-3.9-2.7-6.4-2.7c-3.6,0-6.8,2.1-8.3,5.3l3.3,2.3
			C15.8,15.9,17.8,14.4,20.3,14.4z"/>
		<path class="st3" d="M14.7,20c0-0.7,0.1-1.3,0.3-1.9l-3.3-2.3c-0.6,1.3-1,2.7-1,4.2c0,1.5,0.4,2.9,1,4.2l3.2-2.5
			C14.8,21.1,14.7,20.6,14.7,20z"/>
		<path class="st4" d="M20.3,25.6c-2.5,0-4.6-1.7-5.4-4l-3.2,2.5c1.5,3.1,4.7,5.3,8.3,5.3c2.3,0,4.5-0.9,6.1-2.4l-2.9-2.4
			C22.3,25.3,21.4,25.6,20.3,25.6z"/>
		<path class="st5" d="M29.1,22c0.1-0.6,0.2-1.3,0.2-2c0-0.6-0.1-1.2-0.2-1.7h-3.5h-1.1h-4.4v3.7h5l0.4,0c-0.4,1.2-1.3,2.2-2.3,2.8
			l2.9,2.4C27.6,25.8,28.7,24,29.1,22z"/>
	</g>
</g>
</svg>
